<svg xmlns="http://www.w3.org/2000/svg" width="17" height="18" viewBox="0 0 17 18" fill="none">
  <g clip-path="url(#clip0_15117_1129)">
    <path d="M4.01348 10.5477C2.76256 11.0995 1.98645 11.8685 1.98645 12.7191C1.98645 14.3983 5.01155 15.7596 8.74321 15.7596C12.4749 15.7596 15.5 14.3983 15.5 12.7191C15.5 11.8685 14.7239 11.0995 13.4729 10.5477M12.7973 6.30015C12.7973 9.0459 9.75672 10.3542 8.74321 12.3812C7.72969 10.3542 4.68915 9.0459 4.68915 6.30015C4.68915 4.06116 6.50422 2.24609 8.74321 2.24609C10.9822 2.24609 12.7973 4.06116 12.7973 6.30015ZM9.41888 6.30015C9.41888 6.67331 9.11637 6.97582 8.74321 6.97582C8.37004 6.97582 8.06753 6.67331 8.06753 6.30015C8.06753 5.92698 8.37004 5.62447 8.74321 5.62447C9.11637 5.62447 9.41888 5.92698 9.41888 6.30015Z" stroke="black" stroke-width="1.35135" stroke-linecap="round" stroke-linejoin="round"/>
  </g>
  <defs>
    <clipPath id="clip0_15117_1129">
      <rect width="16.2162" height="16.2162" fill="white" transform="translate(0.635132 0.894531)"/>
    </clipPath>
  </defs>
</svg>