<svg xmlns="http://www.w3.org/2000/svg" width="17" height="12" viewBox="0 0 17 12" fill="none">
  <path d="M13.8808 6.95196C13.4916 6.95196 13.1293 7.05503 12.8048 7.22169L12.1627 6.45857C12.4474 6.2903 12.7553 6.16088 13.0809 6.08801C13.3463 6.02827 13.6093 6.00639 13.8834 6.0023C14.2375 6.00503 14.5859 5.86532 14.8466 5.60703C15.1185 5.33791 15.2744 4.96355 15.2744 4.52086C15.2744 2.08767 13.2246 0.300781 11.0604 0.300781H10.5236C10.261 0.300781 10.0485 0.513302 10.0485 0.775866C10.0485 1.03843 10.261 1.25095 10.5236 1.25095H11.0604C11.2019 1.25095 11.3369 1.27534 11.4737 1.29288V2.21094C11.1979 2.23593 10.938 2.32128 10.6922 2.43572C10.6891 2.43214 10.6852 2.42979 10.6822 2.42621C10.2922 2.60855 9.95607 2.89373 9.7126 3.25894L8.63115 4.88091C8.59447 4.93578 8.54678 4.98243 8.49111 5.01789C8.43544 5.05335 8.37301 5.07686 8.30778 5.08691C7.34595 5.23476 6.51221 5.84793 6.07434 6.74328C6.48016 7.34977 6.72289 8.07225 6.72289 8.8523H5.74105C5.74105 7.28044 4.46241 6.00179 2.89055 6.00179C1.31868 6.00179 0.0400391 7.28044 0.0400391 8.8523C0.0400391 10.4242 1.31868 11.7028 2.89055 11.7028C4.12763 11.7028 5.17244 10.9061 5.566 9.80247H10.0485C10.311 9.80247 10.5236 9.58995 10.5236 9.32739C10.5236 9.06337 10.5551 8.79377 10.6168 8.52668C10.7463 7.97191 11.0348 7.46702 11.422 7.05455L12.0633 7.81652C11.7202 8.22836 11.5054 8.75073 11.5054 9.32739C11.5054 10.6371 12.5711 11.7028 13.8808 11.7028C15.1905 11.7028 16.2563 10.6371 16.2563 9.32739C16.2563 8.01767 15.1905 6.95196 13.8808 6.95196ZM2.89055 10.7526C1.84251 10.7526 0.990208 9.90034 0.990208 8.8523C0.990208 7.80427 1.84251 6.95196 2.89055 6.95196C3.93858 6.95196 4.79088 7.80427 4.79088 8.8523H3.36563C3.10348 8.8523 2.89055 8.63937 2.89055 8.37722C2.89055 8.11465 2.67802 7.90213 2.41546 7.90213C2.1529 7.90213 1.94038 8.11465 1.94038 8.37722C1.94038 9.1631 2.57978 9.80247 3.36563 9.80247H4.52661C4.19703 10.3678 3.59092 10.7526 2.89055 10.7526ZM13.8808 10.7526C13.0949 10.7526 12.4556 10.1132 12.4556 9.32739C12.4556 9.05212 12.5376 8.79713 12.6733 8.57888L13.5097 9.62431C13.6748 9.83031 13.974 9.86135 14.1778 9.69855C14.3824 9.53424 14.4158 9.2356 14.252 9.03046L13.4166 7.98625C13.5628 7.93542 13.7174 7.90213 13.8808 7.90213C14.6667 7.90213 15.3061 8.54153 15.3061 9.32739C15.3061 10.1132 14.6667 10.7526 13.8808 10.7526Z" fill="#464435"/>
  <path d="M8.10805 3.95193L8.92203 2.73093C9.18218 2.34048 9.52342 2.02325 9.91103 1.77693C9.3897 1.4477 8.78866 1.25 8.14815 1.25C7.02565 1.25 5.98873 1.82219 5.37841 2.73986L6.13832 3.19585C6.74874 3.56208 7.41721 3.80728 8.10805 3.95193ZM5.64936 4.01043L2.60068 2.20017H0.515124C0.25256 2.20017 0.0400391 2.41269 0.0400391 2.67525C0.0400391 3.98497 1.10575 5.05068 2.41546 5.05068C3.36576 5.05068 4.35156 5.07133 5.40777 5.98944C5.41182 5.9819 5.41182 5.97338 5.41641 5.96607C5.78498 5.37348 6.30533 4.91398 6.90191 4.59105C6.47002 4.43307 6.04713 4.24899 5.64936 4.01043Z" fill="#464435"/>
</svg>