<svg xmlns="http://www.w3.org/2000/svg" width="14" height="15" viewBox="0 0 14 15" fill="none">
  <path d="M11.9498 2.55026C10.6276 1.22814 8.86977 0.5 7 0.5C5.13023 0.5 3.37236 1.22814 2.05023 2.55026C0.728109 3.87239 0 5.63023 0 7.5C0 9.36977 0.728109 11.1276 2.05023 12.4497C3.37236 13.7718 5.13023 14.5 7 14.5C8.86977 14.5 10.6276 13.7719 11.9498 12.4497C13.2719 11.1276 14 9.36977 14 7.5C14 5.63023 13.2719 3.87236 11.9498 2.55026ZM7 13.126C3.89777 13.126 1.37397 10.6022 1.37397 7.5C1.37397 7.49491 1.37413 7.48988 1.37416 7.48485C1.37416 7.48357 1.37397 7.48234 1.37397 7.48105C1.37397 7.47889 1.37424 7.47681 1.3743 7.47468C1.38794 4.40964 3.86493 1.91597 6.92355 1.87495C6.92994 1.87465 6.93629 1.874 6.94277 1.874C6.94665 1.874 6.95043 1.87446 6.95428 1.87457C6.96954 1.87446 6.98474 1.874 7.00003 1.874C10.1023 1.874 12.6261 4.39782 12.6261 7.50003C12.6261 10.6022 10.1022 13.126 7 13.126Z" fill="white" fill-opacity="0.8"/>
  <path d="M11.2735 7.83717C11.0447 7.83717 10.8593 7.65173 10.8593 7.42297C10.8593 7.19421 11.0447 7.00877 11.2735 7.00877C11.5406 7.00877 11.751 6.77691 11.6962 6.51544C11.2941 4.59326 9.73793 3.09012 7.78842 2.76646C7.55691 2.72803 7.35697 2.9148 7.35697 3.14947C7.35697 3.37823 7.17152 3.56368 6.94277 3.56368C6.71401 3.56368 6.52856 3.37823 6.52856 3.14947C6.52856 2.92192 6.33181 2.74266 6.10821 2.78486C4.17132 3.15045 2.64217 4.68399 2.28292 6.62309C2.23916 6.85926 2.42908 7.066 2.66927 7.066C2.89802 7.066 3.08347 7.25144 3.08347 7.4802C3.08347 7.70896 2.89802 7.89441 2.66927 7.89441C2.42664 7.89441 2.23413 8.10223 2.27659 8.34112C2.62161 10.2822 4.13776 11.8232 6.06596 12.2052C6.343 12.2601 6.58582 12.0361 6.58582 11.7537C6.58582 11.5249 6.77127 11.3395 7.00002 11.3395C7.22878 11.3395 7.41423 11.5249 7.41423 11.7537C7.41423 12.0361 7.65705 12.2601 7.93408 12.2052C9.86086 11.8235 11.3762 10.2844 11.7226 8.34536C11.7713 8.07282 11.5503 7.83717 11.2735 7.83717ZM8.67674 6.40825L7.29293 7.79209C7.25447 7.83055 7.20881 7.86107 7.15856 7.88188C7.10831 7.9027 7.05445 7.91342 7.00005 7.91342C6.94566 7.91342 6.8918 7.9027 6.84154 7.88188C6.79129 7.86107 6.74563 7.83055 6.70717 7.79209L4.29838 5.38329C4.13661 5.22155 4.13661 4.9593 4.29838 4.79753C4.46012 4.63577 4.72237 4.63577 4.88414 4.79753L6.45011 6.36348C6.75385 6.66722 7.24631 6.66722 7.55005 6.36348L8.09104 5.82249C8.25278 5.66072 8.51503 5.66072 8.6768 5.82249C8.83851 5.98423 8.83851 6.24651 8.67674 6.40825Z" fill="white" fill-opacity="0.8"/>
</svg>