<svg width="16" height="17" viewBox="0 0 16 17" fill="none" xmlns="http://www.w3.org/2000/svg">
<g id="Search results for Mail - Flaticon-12 1" clip-path="url(#clip0_15176_3493)">
<g id="Group">
<path id="Vector" d="M9.33691 9.97784C8.93885 10.2432 8.47648 10.3835 7.99976 10.3835C7.52307 10.3835 7.06069 10.2432 6.66263 9.97784L0.106287 5.60681C0.061572 5.57692 -0.000244141 5.6081 -0.000244141 5.66189L-0.000244141 12.6937C-0.000244141 13.5149 0.666162 14.1666 1.47266 14.1666H14.5268C15.348 14.1666 15.9997 13.5002 15.9997 12.6937V5.66213C15.9997 5.60824 15.9378 5.57701 15.893 5.60694L9.33691 9.97784Z" fill="#333333"/>
<path id="Vector_2" d="M0.626563 4.82709L7.18291 9.19816C7.43109 9.36363 7.71553 9.44634 7.99997 9.44634C8.28444 9.44634 8.56891 9.36359 8.81709 9.19816L15.3734 4.82709C15.7658 4.56569 16 4.12819 16 3.656C16 2.84409 15.3395 2.18359 14.5276 2.18359H1.47241C0.660532 2.18363 7.75033e-07 2.84412 7.75033e-07 3.65678C-0.000242619 3.88841 0.0568447 4.1165 0.166171 4.3207C0.275497 4.5249 0.433664 4.69887 0.626563 4.82709Z" fill="#333333"/>
</g>
</g>
<defs>
<clipPath id="clip0_15176_3493">
<rect width="16" height="16" fill="white" transform="translate(0 0.179688)"/>
</clipPath>
</defs>
</svg>
