<svg xmlns="http://www.w3.org/2000/svg" width="21" height="21" viewBox="0 0 21 21" fill="none">
  <g clip-path="url(#clip0_14527_17156)">
    <path d="M20.2495 10.4782C20.612 10.0795 20.577 9.46835 20.1713 9.11356L11.233 1.29254C10.8273 0.937747 10.1769 0.94518 9.77971 1.30929L0.811057 9.53055C0.413891 9.89466 0.394397 10.505 0.767898 10.8933L0.992755 11.1274C1.3658 11.5157 1.96879 11.562 2.3387 11.2305L3.00897 10.6303V19.418C3.00897 19.9572 3.44584 20.3936 3.98461 20.3936H7.48061C8.01938 20.3936 8.45625 19.9572 8.45625 19.418V13.2701H12.9154V19.418C12.9077 19.9568 13.2932 20.3932 13.832 20.3932H17.5368C18.0756 20.3932 18.5125 19.9568 18.5125 19.4176V10.754C18.5125 10.754 18.6976 10.9162 18.926 11.1169C19.154 11.3173 19.6329 11.1566 19.9954 10.7575L20.2495 10.4782Z" fill="#010002"/>
  </g>
  <defs>
    <clipPath id="clip0_14527_17156">
      <rect width="20" height="20" fill="white" transform="translate(0.5 0.710938)"/>
    </clipPath>
  </defs>
</svg>