<svg xmlns="http://www.w3.org/2000/svg" width="25" height="25" viewBox="0 0 25 25" fill="none">
  <path d="M7.96296 1.87891H17.035C20.491 1.87891 23.299 4.68691 23.299 8.14291V17.2149C23.299 18.8762 22.639 20.4695 21.4643 21.6442C20.2896 22.819 18.6963 23.4789 17.035 23.4789H7.96296C4.50697 23.4789 1.69897 20.6709 1.69897 17.2149V8.14291C1.69897 6.48159 2.35893 4.88832 3.53365 3.71358C4.70838 2.53886 6.30165 1.87891 7.96296 1.87891ZM7.74696 4.03891C6.71581 4.03891 5.72688 4.44853 4.99773 5.17767C4.26859 5.90681 3.85897 6.89575 3.85897 7.92691V17.4309C3.85897 19.5801 5.59777 21.3189 7.74696 21.3189H17.251C18.2821 21.3189 19.2711 20.9093 20.0002 20.1801C20.7293 19.451 21.139 18.4621 21.139 17.4309V7.92691C21.139 5.77771 19.4002 4.03891 17.251 4.03891H7.74696ZM18.169 5.65891C18.527 5.65891 18.8703 5.80114 19.1236 6.05431C19.3767 6.30749 19.519 6.65087 19.519 7.00891C19.519 7.36695 19.3767 7.71032 19.1236 7.9635C18.8703 8.21668 18.527 8.35891 18.169 8.35891C17.8109 8.35891 17.4675 8.21668 17.2144 7.9635C16.9612 7.71032 16.819 7.36695 16.819 7.00891C16.819 6.65087 16.9612 6.30749 17.2144 6.05431C17.4675 5.80114 17.8109 5.65891 18.169 5.65891ZM12.499 7.27891C13.9311 7.27891 15.3046 7.84784 16.3174 8.86054C17.33 9.87323 17.899 11.2467 17.899 12.6789C17.899 14.1111 17.33 15.4846 16.3174 16.4973C15.3046 17.5099 13.9311 18.0789 12.499 18.0789C11.0668 18.0789 9.69329 17.5099 8.68059 16.4973C7.6679 15.4846 7.09897 14.1111 7.09897 12.6789C7.09897 11.2467 7.6679 9.87323 8.68059 8.86054C9.69329 7.84784 11.0668 7.27891 12.499 7.27891ZM12.499 9.43891C11.6397 9.43891 10.8156 9.78026 10.2079 10.3879C9.60032 10.9955 9.25896 11.8196 9.25896 12.6789C9.25896 13.5382 9.60032 14.3623 10.2079 14.9699C10.8156 15.5775 11.6397 15.9189 12.499 15.9189C13.3583 15.9189 14.1824 15.5775 14.79 14.9699C15.3976 14.3623 15.739 13.5382 15.739 12.6789C15.739 11.8196 15.3976 10.9955 14.79 10.3879C14.1824 9.78026 13.3583 9.43891 12.499 9.43891Z" fill="#333333" fill-opacity="0.6"/>
</svg>