<svg xmlns="http://www.w3.org/2000/svg" width="25" height="25" viewBox="0 0 25 25" fill="none">
  <path d="M16.7003 8.58203C18.4508 8.58203 20.1295 9.25307 21.3672 10.4475C22.605 11.642 23.3003 13.262 23.3003 14.9513V22.382H18.9003V14.9513C18.9003 14.3882 18.6686 13.8482 18.256 13.45C17.8434 13.0519 17.2838 12.8282 16.7003 12.8282C16.1169 12.8282 15.5573 13.0519 15.1447 13.45C14.7321 13.8482 14.5003 14.3882 14.5003 14.9513V22.382H10.1003V14.9513C10.1003 13.262 10.7957 11.642 12.0334 10.4475C13.2712 9.25307 14.9499 8.58203 16.7003 8.58203Z" stroke="#333333" stroke-opacity="0.6" stroke-width="0.9" stroke-linecap="round" stroke-linejoin="round"/>
  <path d="M5.90044 9.78125H1.70044V22.3812H5.90044V9.78125Z" stroke="#333333" stroke-opacity="0.6" stroke-width="0.9" stroke-linecap="round" stroke-linejoin="round"/>
  <path d="M3.80044 6.18047C4.96024 6.18047 5.90044 5.24027 5.90044 4.08047C5.90044 2.92067 4.96024 1.98047 3.80044 1.98047C2.64064 1.98047 1.70044 2.92067 1.70044 4.08047C1.70044 5.24027 2.64064 6.18047 3.80044 6.18047Z" stroke="#333333" stroke-opacity="0.6" stroke-width="0.9" stroke-linecap="round" stroke-linejoin="round"/>
</svg>