<svg width="16" height="17" viewBox="0 0 16 17" fill="none" xmlns="http://www.w3.org/2000/svg">
<g id="Search results for Mail - Flaticon-12 1" clip-path="url(#clip0_15176_3487)">
<g id="Group">
<path id="Vector" fill-rule="evenodd" clip-rule="evenodd" d="M7.84532 0.402344C5.07469 0.402344 2.82202 2.67541 2.82202 5.47917C2.82202 6.42888 3.24026 7.6071 3.84901 8.78234C5.1893 11.3702 7.42187 13.9768 7.42187 13.9768C7.47427 14.0378 7.53924 14.0868 7.61232 14.1203C7.68541 14.1539 7.76489 14.1713 7.84532 14.1713C7.92575 14.1713 8.00522 14.1539 8.07831 14.1203C8.1514 14.0868 8.21636 14.0378 8.26876 13.9768C8.26876 13.9768 10.5013 11.3702 11.8416 8.78234C12.4504 7.6071 12.8686 6.42888 12.8686 5.47917C12.8686 2.67541 10.6159 0.402344 7.84532 0.402344ZM7.84532 3.37951C7.3121 3.3939 6.80555 3.61585 6.43349 3.99813C6.06143 4.38042 5.85324 4.89284 5.85324 5.42632C5.85324 5.9598 6.06143 6.47222 6.43349 6.85451C6.80555 7.23679 7.3121 7.45874 7.84532 7.47313C8.37853 7.45874 8.88508 7.23679 9.25714 6.85451C9.62921 6.47222 9.83739 5.9598 9.83739 5.42632C9.83739 4.89284 9.62921 4.38042 9.25714 3.99813C8.88508 3.61585 8.37853 3.3939 7.84532 3.37951Z" fill="#333333"/>
<path id="Vector_2" fill-rule="evenodd" clip-rule="evenodd" d="M11.4051 12.4018C12.0102 12.5834 12.5088 12.8082 12.8533 13.0717C13.0766 13.2413 13.2403 13.4073 13.2403 13.6098C13.2403 13.7289 13.1726 13.8368 13.0773 13.9447C12.9196 14.1226 12.6852 14.2826 12.3949 14.4315C11.3694 14.9562 9.71136 15.2844 7.84493 15.2844C5.9785 15.2844 4.32044 14.9562 3.29494 14.4315C3.00471 14.2826 2.77029 14.1226 2.61252 13.9447C2.51726 13.8368 2.44954 13.7289 2.44954 13.6098C2.44954 13.4073 2.61326 13.2413 2.83652 13.0717C3.18108 12.8082 3.67969 12.5834 4.28472 12.4018C4.42653 12.3591 4.5456 12.2619 4.61573 12.1315C4.68586 12.001 4.70131 11.8481 4.65867 11.7062C4.61604 11.5644 4.51882 11.4453 4.3884 11.3752C4.25798 11.305 4.10504 11.2896 3.96323 11.3322C3.04192 11.6099 2.326 11.9902 1.89586 12.4107C1.51781 12.7791 1.33325 13.1915 1.33325 13.6098C1.33325 14.1323 1.6287 14.6533 2.22926 15.0879C3.28303 15.8501 5.39952 16.4009 7.84493 16.4009C10.2903 16.4009 12.4068 15.8501 13.4606 15.0879C14.0612 14.6533 14.3566 14.1323 14.3566 13.6098C14.3566 13.1915 14.172 12.7791 13.794 12.4107C13.3639 11.9902 12.6479 11.6099 11.7266 11.3322C11.6564 11.3111 11.5827 11.3041 11.5098 11.3114C11.4368 11.3188 11.366 11.3405 11.3015 11.3752C11.2369 11.4099 11.1798 11.457 11.1334 11.5138C11.087 11.5706 11.0523 11.636 11.0312 11.7062C11.0101 11.7765 11.003 11.8502 11.0104 11.9231C11.0177 11.9961 11.0394 12.0669 11.0741 12.1315C11.1089 12.1961 11.156 12.2532 11.2128 12.2996C11.2696 12.3459 11.3349 12.3807 11.4051 12.4018Z" fill="#333333"/>
</g>
</g>
<defs>
<clipPath id="clip0_15176_3487">
<rect width="16" height="16" fill="white" transform="translate(0 0.179688)"/>
</clipPath>
</defs>
</svg>
