<svg xmlns="http://www.w3.org/2000/svg" width="17" height="17" viewBox="0 0 17 17" fill="none">
  <g clip-path="url(#clip0_14951_22796)">
    <path d="M7.50033 9.55738C5.97315 8.03021 5.62833 6.50303 5.55053 5.89117C5.53981 5.8077 5.54844 5.72288 5.57575 5.64328C5.60307 5.56368 5.64833 5.49144 5.70805 5.43214L6.94391 4.19683C7.03219 4.1086 7.08795 3.99305 7.10208 3.86904C7.11621 3.74503 7.08788 3.61989 7.02171 3.51407L5.05398 0.458621C4.98123 0.342169 4.86767 0.25703 4.73549 0.219841C4.60332 0.182652 4.46202 0.196086 4.33922 0.257518L1.18033 1.74524C1.07985 1.79472 0.996919 1.87376 0.942674 1.97174C0.88843 2.06973 0.86547 2.18196 0.876878 2.29338C1.0424 3.86579 1.72791 7.73117 5.52653 11.5301C9.32515 15.329 13.19 16.0142 14.7632 16.1797C14.8746 16.1911 14.9869 16.1682 15.0849 16.1139C15.1828 16.0597 15.2619 15.9768 15.3114 15.8763L16.7991 12.7174C16.8603 12.5948 16.8737 12.4539 16.8368 12.322C16.7998 12.1901 16.7151 12.0766 16.5991 12.0037L13.5436 10.0366C13.4379 9.97031 13.3128 9.94188 13.1888 9.95591C13.0648 9.96994 12.9492 10.0256 12.8609 10.1138L11.6256 11.3497C11.5053 11.4708 11.3359 11.529 11.1665 11.5072C10.5547 11.4294 9.0275 11.0846 7.50033 9.55738Z" fill="#333333"/>
    <path d="M13.5646 8.7306C13.4183 8.7306 13.278 8.67248 13.1745 8.56901C13.071 8.46554 13.0129 8.32521 13.0129 8.17888C13.0101 5.89474 11.1591 4.04371 8.87497 4.04095C8.72864 4.04095 8.58831 3.98282 8.48484 3.87935C8.38137 3.77588 8.32324 3.63555 8.32324 3.48922C8.32324 3.3429 8.38137 3.20256 8.48484 3.0991C8.58831 2.99563 8.72864 2.9375 8.87497 2.9375C11.7685 2.94081 14.113 5.28536 14.1163 8.17888C14.1163 8.32521 14.0582 8.46554 13.9547 8.56901C13.8513 8.67248 13.7109 8.7306 13.5646 8.7306Z" fill="#333333"/>
    <path d="M16.3232 8.73532C16.1769 8.73532 16.0366 8.67719 15.9331 8.57372C15.8296 8.47025 15.7715 8.32992 15.7715 8.18359C15.7674 4.3767 12.6819 1.29118 8.87497 1.28704C8.72864 1.28704 8.58831 1.22891 8.48484 1.12545C8.38137 1.02198 8.32324 0.881644 8.32324 0.735318C8.32324 0.588992 8.38137 0.448658 8.48484 0.34519C8.58831 0.241722 8.72864 0.183594 8.87497 0.183594C13.2912 0.188559 16.87 3.76732 16.875 8.18359C16.875 8.32992 16.8168 8.47025 16.7134 8.57372C16.6099 8.67719 16.4696 8.73532 16.3232 8.73532Z" fill="#333333"/>
  </g>
  <defs>
    <clipPath id="clip0_14951_22796">
      <rect width="16" height="16" fill="white" transform="translate(0.87793 0.191406)"/>
    </clipPath>
  </defs>
</svg>