<svg xmlns="http://www.w3.org/2000/svg" width="21" height="20" viewBox="0 0 21 20" fill="none">
  <g clip-path="url(#clip0_15149_2669)">
    <path d="M12.0858 5.0013C12.8998 5.16011 13.6478 5.55818 14.2342 6.14458C14.8206 6.73098 15.2187 7.47902 15.3775 8.29297M12.0858 1.66797C13.7769 1.85583 15.3538 2.61311 16.5577 3.81548C17.7616 5.01784 18.5208 6.59381 18.7108 8.28464M8.89997 11.5539C7.89865 10.5525 7.108 9.42034 6.528 8.21233C6.47811 8.10842 6.45316 8.05646 6.434 7.99072C6.3659 7.75709 6.41481 7.47021 6.55649 7.27235C6.59636 7.21668 6.64399 7.16905 6.73925 7.07379C7.03059 6.78245 7.17626 6.63678 7.27149 6.4903C7.63066 5.93789 7.63066 5.22574 7.27149 4.67333C7.17626 4.52685 7.03059 4.38118 6.73925 4.08984L6.57686 3.92745C6.13399 3.48458 5.91255 3.26314 5.67474 3.14286C5.20177 2.90363 4.64322 2.90363 4.17025 3.14286C3.93243 3.26315 3.711 3.48458 3.26813 3.92745L3.13676 4.05881C2.69541 4.50016 2.47474 4.72084 2.3062 5.02087C2.11918 5.35379 1.98471 5.87086 1.98585 6.25272C1.98687 6.59684 2.05362 6.83202 2.18713 7.3024C2.9046 9.83023 4.25833 12.2155 6.24832 14.2055C8.2383 16.1955 10.6236 17.5492 13.1514 18.2667C13.6218 18.4002 13.857 18.467 14.2011 18.468C14.583 18.4691 15.1 18.3346 15.433 18.1476C15.733 17.9791 15.9537 17.7584 16.395 17.3171L16.5264 17.1857C16.9692 16.7428 17.1907 16.5214 17.311 16.2836C17.5502 15.8106 17.5502 15.2521 17.311 14.7791C17.1907 14.5413 16.9692 14.3198 16.5264 13.877L16.364 13.7146C16.0726 13.4232 15.927 13.2776 15.7805 13.1823C15.2281 12.8232 14.5159 12.8232 13.9635 13.1823C13.817 13.2776 13.6714 13.4232 13.38 13.7146C13.2848 13.8098 13.2372 13.8575 13.1815 13.8973C12.9836 14.039 12.6967 14.0879 12.4631 14.0198C12.3974 14.0007 12.3454 13.9757 12.2415 13.9258C11.0335 13.3458 9.90128 12.5552 8.89997 11.5539Z" stroke="white" stroke-width="2" stroke-linecap="round" stroke-linejoin="round"/>
  </g>
  <defs>
    <clipPath id="clip0_15149_2669">
      <rect width="20" height="20" fill="white" transform="translate(0.37793)"/>
    </clipPath>
  </defs>
</svg>