<svg xmlns="http://www.w3.org/2000/svg" width="16" height="17" viewBox="0 0 16 17" fill="none">
  <g clip-path="url(#clip0_15194_3335)">
    <path d="M6.6224 9.54566C5.09522 8.01849 4.7504 6.49132 4.6726 5.87945C4.66188 5.79598 4.67051 5.71116 4.69782 5.63156C4.72514 5.55196 4.77041 5.47972 4.83012 5.42042L6.06598 4.18511C6.15426 4.09688 6.21002 3.98133 6.22415 3.85732C6.23828 3.73331 6.20995 3.60818 6.14378 3.50235L4.17605 0.446902C4.1033 0.330451 3.98974 0.245311 3.85756 0.208122C3.72539 0.170933 3.58409 0.184367 3.46129 0.245799L0.302396 1.73352C0.201919 1.783 0.118989 1.86204 0.0647445 1.96002C0.0105002 2.05801 -0.01246 2.17025 -0.00105192 2.28166C0.164465 3.85407 0.849983 7.71945 4.6486 11.5184C8.44722 15.3172 12.3121 16.0025 13.8853 16.168C13.9967 16.1794 14.1089 16.1565 14.2069 16.1022C14.3049 16.048 14.384 15.965 14.4334 15.8646L15.9212 12.7057C15.9824 12.5831 15.9958 12.4422 15.9588 12.3103C15.9219 12.1783 15.8371 12.0649 15.7212 11.992L12.6657 10.0248C12.5599 9.95859 12.4348 9.93017 12.3108 9.94419C12.1868 9.95822 12.0712 10.0139 11.9829 10.1021L10.7476 11.3379C10.6274 11.459 10.458 11.5172 10.2886 11.4955C9.67674 11.4177 8.14957 11.0728 6.6224 9.54566Z" fill="#333333"/>
    <path d="M12.6867 8.71888C12.5404 8.71888 12.4 8.66076 12.2966 8.55729C12.1931 8.45382 12.135 8.31349 12.135 8.16716C12.1322 5.88302 10.2812 4.03199 7.99704 4.02923C7.85071 4.02923 7.71038 3.9711 7.60691 3.86763C7.50344 3.76416 7.44531 3.62383 7.44531 3.47751C7.44531 3.33118 7.50344 3.19085 7.60691 3.08738C7.71038 2.98391 7.85071 2.92578 7.99704 2.92578C10.8906 2.92909 13.2351 5.27364 13.2384 8.16716C13.2384 8.31349 13.1803 8.45382 13.0768 8.55729C12.9734 8.66076 12.833 8.71888 12.6867 8.71888Z" fill="#333333"/>
    <path d="M15.4453 8.7236C15.299 8.7236 15.1587 8.66547 15.0552 8.562C14.9517 8.45853 14.8936 8.3182 14.8936 8.17188C14.8895 4.36498 11.8039 1.27946 7.99704 1.27532C7.85071 1.27532 7.71038 1.2172 7.60691 1.11373C7.50344 1.01026 7.44531 0.869925 7.44531 0.723599C7.44531 0.577273 7.50344 0.43694 7.60691 0.333471C7.71038 0.230003 7.85071 0.171875 7.99704 0.171875C12.4133 0.176841 15.9921 3.7556 15.997 8.17188C15.997 8.3182 15.9389 8.45853 15.8354 8.562C15.732 8.66547 15.5916 8.7236 15.4453 8.7236Z" fill="#333333"/>
  </g>
  <defs>
    <clipPath id="clip0_15194_3335">
      <rect width="16" height="16" fill="white" transform="translate(0 0.179688)"/>
    </clipPath>
  </defs>
</svg>