<svg xmlns="http://www.w3.org/2000/svg" width="25" height="25" viewBox="0 0 25 25" fill="none">
  <path d="M8.92139 20.4452C8.94485 20.0824 8.99381 19.7205 9.06725 19.3641C9.13151 19.0456 9.32633 18.1437 9.61193 16.8369L9.61907 16.8045L10.0138 15.0031C10.0944 14.6359 10.1566 14.3507 10.1984 14.2557C10.0004 13.7709 9.90163 13.2471 9.90875 12.7189C9.90875 11.2749 10.6799 10.156 11.6795 10.156C12.0467 10.1495 12.3975 10.318 12.6403 10.6161C12.8831 10.9142 12.9953 11.3105 12.9483 11.6918C12.9483 12.181 12.8616 12.5536 12.4863 13.8896C12.4281 14.0945 12.372 14.3001 12.318 14.5063C12.2685 14.693 12.2233 14.881 12.1823 15.07C12.0844 15.4869 12.1742 15.9309 12.4241 16.2635C12.5452 16.4268 12.7017 16.5567 12.8803 16.6426C13.0588 16.7287 13.2543 16.7678 13.4502 16.757C14.9721 16.757 16.1022 14.6133 16.1022 11.8451C16.1022 9.71755 14.7864 8.30923 12.6015 8.30923C12.0546 8.2877 11.5094 8.38658 11.0004 8.59962C10.4915 8.81266 10.0298 9.13522 9.64457 9.54691C9.25111 9.96761 8.94071 10.467 8.73144 11.0161C8.52216 11.5651 8.41822 12.1528 8.42567 12.7448C8.40031 13.3828 8.5849 14.0104 8.94791 14.5203C9.13253 14.6716 9.20291 14.9339 9.12641 15.1576C9.08459 15.339 8.98361 15.7537 8.94587 15.892C8.93533 15.9597 8.91004 16.024 8.87197 16.0796C8.83391 16.1354 8.78412 16.1809 8.72657 16.2127C8.67073 16.2435 8.60874 16.2598 8.54577 16.2602C8.48279 16.2606 8.42063 16.2449 8.36447 16.2148C7.18127 15.6976 6.53255 14.2946 6.53255 12.4996C6.53255 9.27583 9.07337 6.46891 12.8484 6.46891C16.0461 6.46891 18.439 8.98423 18.439 12.0201C18.439 15.8347 16.4683 18.6124 13.6552 18.6124C13.2551 18.6248 12.8578 18.5375 12.4953 18.3575C12.1329 18.1776 11.8154 17.9102 11.5683 17.5768L11.5244 17.7679L11.3133 18.688L11.3112 18.6967C11.1623 19.3447 11.0583 19.7951 11.0175 19.9636C10.9094 20.3469 10.7727 20.7227 10.6095 21.0868C12.6391 21.5988 14.7768 21.2683 16.5834 20.1632C18.39 19.058 19.7281 17.262 20.3227 15.1445C20.9174 13.0269 20.7234 10.7487 19.7806 8.7779C18.8377 6.80712 17.2179 5.29363 15.2537 4.54845C13.2895 3.80328 11.1304 3.88304 9.22003 4.77136C7.3097 5.65969 5.79331 7.28907 4.98253 9.32463C4.17175 11.3602 4.12818 13.6472 4.86076 15.7157C5.59335 17.7843 7.04645 19.476 8.92139 20.4452ZM12.4995 23.4789C6.86609 23.4789 2.29956 18.6438 2.29956 12.6789C2.29956 6.71407 6.86609 1.87891 12.4995 1.87891C18.133 1.87891 22.6996 6.71407 22.6996 12.6789C22.6996 18.6438 18.133 23.4789 12.4995 23.4789Z" fill="#333333" fill-opacity="0.6"/>
</svg>