<svg xmlns="http://www.w3.org/2000/svg" width="59" height="56" viewBox="0 0 59 56" fill="none">
  <path d="M1.40234 54.1652L4.0994 44.3294C2.43967 41.4531 1.56266 38.1808 1.56266 34.8425C1.56266 24.3749 10.0876 15.8594 20.5458 15.8594C25.6287 15.8594 30.391 17.8397 33.9745 21.4232C37.558 25.0067 39.5289 29.7785 39.5289 34.852C39.5289 45.3196 31.004 53.8351 20.5458 53.8351H20.5364C17.3584 53.8351 14.2369 53.0335 11.4644 51.5247L1.40234 54.1652Z" fill="#2E5A2C"/>
  <path d="M0.714844 54.8529L3.50621 44.6682C1.78989 41.6882 0.875158 38.3027 0.884589 34.8418C0.884589 23.997 9.71133 15.1797 20.5561 15.1797C25.8182 15.1797 30.7597 17.2261 34.4658 20.9416C38.1813 24.6571 40.2277 29.5986 40.2183 34.8512C40.2183 45.6961 31.3915 54.5134 20.5467 54.5134H20.5373C17.2461 54.5134 14.0115 53.6835 11.1353 52.1181L0.714844 54.8529ZM11.6257 48.5534L12.2198 48.9118C14.7282 50.4018 17.6045 51.1845 20.5373 51.1939H20.5467C29.5526 51.1939 36.8894 43.8666 36.8894 34.8512C36.8894 30.485 35.1919 26.3829 32.1082 23.2897C29.0245 20.1966 24.9129 18.4991 20.5467 18.4991C11.5314 18.4991 4.19462 25.8265 4.19462 34.8418C4.19462 37.9255 5.05277 40.9338 6.69364 43.5365L7.08028 44.1589L5.42998 50.1849L11.6257 48.5534Z" fill="white"/>
  <path d="M15.6321 26.6082C15.2643 25.7877 14.8777 25.7689 14.5287 25.7594C14.2458 25.75 13.9158 25.75 13.5857 25.75C13.2557 25.75 12.7276 25.8726 12.2749 26.363C11.8223 26.8533 10.5586 28.0416 10.5586 30.4651C10.5586 32.8793 12.3221 35.218 12.5672 35.5481C12.8124 35.8781 15.9716 40.9988 20.9602 42.9697C25.1095 44.6106 25.9582 44.2805 26.8541 44.1956C27.7594 44.1107 29.7586 43.0074 30.1736 41.8569C30.5791 40.7064 30.5791 39.7257 30.4565 39.5182C30.3339 39.3107 30.0038 39.1881 29.5134 38.943C29.0231 38.6978 26.6089 37.5096 26.1563 37.3398C25.7036 37.1701 25.3736 37.0946 25.0529 37.585C24.7229 38.0754 23.7798 39.1787 23.4969 39.5088C23.214 39.8388 22.9217 39.8766 22.4313 39.6314C21.9409 39.3862 20.3567 38.8675 18.48 37.1889C17.0183 35.8875 16.0282 34.275 15.7452 33.7846C15.4623 33.2942 15.717 33.0302 15.9621 32.785C16.179 32.5681 16.4525 32.2097 16.6977 31.9268C16.9429 31.6439 17.0278 31.4365 17.1881 31.1064C17.3484 30.7763 17.2729 30.4934 17.1504 30.2482C17.0278 30.0031 16.0659 27.5795 15.6321 26.6082Z" fill="white"/>
  <g filter="url(#filter0_d_15278_505)">
    <circle cx="42.5" cy="16.0586" r="6" fill="#17E268"/>
  </g>
  <defs>
    <filter id="filter0_d_15278_505" x="26.5" y="0.0585938" width="32" height="32" filterUnits="userSpaceOnUse" color-interpolation-filters="sRGB">
      <feFlood flood-opacity="0" result="BackgroundImageFix"/>
      <feColorMatrix in="SourceAlpha" type="matrix" values="0 0 0 0 0 0 0 0 0 0 0 0 0 0 0 0 0 0 127 0" result="hardAlpha"/>
      <feOffset/>
      <feGaussianBlur stdDeviation="5"/>
      <feComposite in2="hardAlpha" operator="out"/>
      <feColorMatrix type="matrix" values="0 0 0 0 0.305882 0 0 0 0 0.94902 0 0 0 0 0.25098 0 0 0 0.6 0"/>
      <feBlend mode="normal" in2="BackgroundImageFix" result="effect1_dropShadow_15278_505"/>
      <feBlend mode="normal" in="SourceGraphic" in2="effect1_dropShadow_15278_505" result="shape"/>
    </filter>
  </defs>
</svg>