<svg xmlns="http://www.w3.org/2000/svg" width="25" height="25" viewBox="0 0 25 25" fill="none">
  <path d="M5.61157 5.13601C5.61157 4.14516 5.61157 3.64973 5.81817 3.37664C5.99815 3.13872 6.27324 2.9915 6.57103 2.97372C6.91286 2.95331 7.32508 3.22812 8.14951 3.77774L18.8782 10.9302C19.5594 11.3844 19.9 11.6114 20.0187 11.8976C20.1225 12.1479 20.1225 12.4291 20.0187 12.6793C19.9 12.9655 19.5594 13.1926 18.8782 13.6467L8.14951 20.7992C7.32508 21.3488 6.91286 21.6236 6.57103 21.6032C6.27324 21.5854 5.99815 21.4382 5.81817 21.2003C5.61157 20.9272 5.61157 20.4318 5.61157 19.4409V5.13601Z" fill="white" fill-opacity="0.8"/>
</svg>