<svg xmlns="http://www.w3.org/2000/svg" width="57" height="38" viewBox="0 0 57 38" fill="none">
  <path d="M9.65668 26.7969C7.92702 26.7969 6.5199 28.204 6.5199 29.9337C6.5199 31.6633 7.92702 33.0715 9.65668 33.0715C11.3863 33.0715 12.7935 31.6633 12.7935 29.9337C12.7935 28.204 11.3863 26.7969 9.65668 26.7969ZM47.641 26.7969C45.9113 26.7969 44.5042 28.204 44.5042 29.9337C44.5042 31.6633 45.9113 33.0715 47.641 33.0715C49.3706 33.0715 50.7778 31.6633 50.7778 29.9337C50.7778 28.204 49.3706 26.7969 47.641 26.7969Z" fill="#2E5A2C"/>
  <path d="M47.641 22.1719C43.3637 22.1719 39.884 25.6515 39.884 29.9289C39.884 34.2062 43.3637 37.6869 47.641 37.6869C51.9184 37.6869 55.3991 34.2062 55.3991 29.9289C55.3991 25.6515 51.9184 22.1719 47.641 22.1719ZM47.641 35.1016C44.7891 35.1016 42.4694 32.7818 42.4694 29.9289C42.4694 27.076 44.7891 24.7572 47.641 24.7572C50.4929 24.7572 52.8127 27.077 52.8127 29.9289C52.8127 32.7808 50.4929 35.1016 47.641 35.1016Z" fill="#2E5A2C"/>
  <path d="M52.646 21.3674L55.0614 23.7818L56.5001 22.3431L54.0846 19.9287V14.2453C54.0846 12.5624 52.7152 11.1929 51.0323 11.1929H35.093V1.35729H33.0581V12.9765L29.9071 10.786L32.1872 7.63289L30.5379 6.44045L25.1119 13.9451L26.7611 15.1376L28.7146 12.4352L33.0581 15.455V19.3325H23.7668L22.4105 17.2976H24.3254V15.2627H21.0543L19.2473 12.5522C18.969 12.1337 18.5915 11.7905 18.1484 11.5533C17.7053 11.3162 17.2103 11.1923 16.7077 11.1929H10.4515L7.73998 0.339844H6.26672C4.58386 0.339844 3.21438 1.70933 3.21438 3.39218V11.2275C2.47023 11.3091 1.78219 11.6618 1.28165 12.2185C0.781115 12.7752 0.503154 13.4967 0.500854 14.2453V18.3151C0.500854 19.9979 1.87034 21.3674 3.55319 21.3674H15.5265L19.057 30.2914C19.2803 30.8616 19.6708 31.351 20.1772 31.6953C20.6836 32.0395 21.2823 32.2226 21.8947 32.2205H35.5325C36.0998 32.2223 36.6563 32.0653 37.1389 31.7671C37.6215 31.469 38.0111 31.0417 38.2634 30.5336L42.8459 21.3684H52.648L52.646 21.3674ZM47.981 13.9054H51.9724C52.0211 14.0123 52.0474 14.1279 52.0497 14.2453V18.6539H47.981V13.9054ZM34.0755 26.7934H23.2225V24.7585H34.0755V26.7934Z" fill="#2E5A2C"/>
  <path d="M9.65666 22.1719C5.37932 22.1719 1.89966 25.6515 1.89966 29.9289C1.89966 34.2062 5.37932 37.6869 9.65666 37.6869C13.934 37.6869 17.4147 34.2062 17.4147 29.9289C17.4147 25.6515 13.934 22.1719 9.65666 22.1719ZM9.65666 35.1016C6.80476 35.1016 4.48499 32.7818 4.48499 29.9289C4.48499 27.076 6.80476 24.7572 9.65666 24.7572C12.5086 24.7572 14.8283 27.077 14.8283 29.9289C14.8283 32.7808 12.5086 35.1016 9.65666 35.1016Z" fill="#2E5A2C"/>
</svg>