<svg xmlns="http://www.w3.org/2000/svg" width="57" height="36" viewBox="0 0 57 36" fill="none">
  <path d="M42.1967 5.1118L38.0758 0.894078C37.9201 0.73473 37.7342 0.608108 37.5289 0.52165C37.3235 0.435193 37.103 0.390645 36.8802 0.390625H32.7591C31.8359 0.390625 31.0875 1.13908 31.0875 2.0622C31.0875 2.98533 31.836 3.73378 32.7591 3.73378H36.1763L39.8055 7.44805C40.4366 8.09391 41.5258 8.1043 42.1693 7.4755C42.8297 6.83041 42.8419 5.77209 42.1967 5.1118Z" fill="url(#paint0_linear_15117_1771)"/>
  <path d="M8.95075 18.8711C4.28372 18.8711 0.5 22.6548 0.5 27.3218C0.5 31.9889 4.28372 35.7726 8.95075 35.7726C13.6178 35.7726 17.4015 31.989 17.4015 27.3218C17.4014 22.6548 13.6178 18.8711 8.95075 18.8711ZM8.95075 31.8638C6.44256 31.8638 4.40873 29.8299 4.40873 27.3217C4.40873 24.8135 6.44256 22.7797 8.95075 22.7797C11.4589 22.7797 13.4928 24.8135 13.4928 27.3217C13.4927 29.83 11.4588 31.8638 8.95075 31.8638Z" fill="#2E5A2C"/>
  <path d="M8.86717 25.4372L21.6686 18.8398L23.9285 23.0957L10.4559 28.8218C9.52987 29.2155 8.45832 28.806 8.03067 27.8951C7.60312 26.9842 7.9727 25.8982 8.86717 25.4372Z" fill="url(#paint1_linear_15117_1771)"/>
  <path d="M48.0493 18.8711C43.3822 18.8711 39.5985 22.6548 39.5985 27.3218C39.5985 31.9889 43.3822 35.7726 48.0493 35.7726C52.7163 35.7726 56.5 31.9889 56.5 27.3218C56.5 22.6548 52.7163 18.8711 48.0493 18.8711ZM48.0493 31.8638C45.5411 31.8638 43.5072 29.8299 43.5072 27.3217C43.5072 24.8135 45.5411 22.7797 48.0493 22.7797C50.5574 22.7797 52.5913 24.8135 52.5913 27.3217C52.5913 29.83 50.5574 31.8638 48.0493 31.8638Z" fill="#2E5A2C"/>
  <path d="M45.9464 27.1518L40.5067 15.7538L44.7956 13.8984L49.378 25.6674C49.7431 26.6051 49.301 27.6636 48.3774 28.0632C47.4539 28.4626 46.3797 28.06 45.9464 27.1518Z" fill="url(#paint2_linear_15117_1771)"/>
  <path d="M54.7004 13.604C54.5731 14.0705 54.1043 14.3578 53.63 14.262C50.8119 13.6931 40.4671 12.2981 35.3944 21.1353L27.9286 15.8855L26.1652 7.87552C27.0767 7.89695 27.8677 7.90822 28.4998 7.90822C37.0632 7.90822 40.5065 4.40625 40.5065 4.40625C40.5065 4.40625 42.2372 5.40966 43.0784 9.03784C43.1629 9.40272 43.4866 9.66259 43.8612 9.66325C45.8745 9.66697 51.9766 9.77109 53.9015 10.8715C54.8435 11.4103 54.9742 12.6092 54.7004 13.604Z" fill="#2E5A2C"/>
  <path d="M35.3947 21.1317L35.0736 24.0962C34.9125 25.5858 33.655 26.7159 32.1563 26.7159H24.4279C23.8904 26.7159 23.4284 26.3408 23.3147 25.8157C22.7209 23.0562 19.6527 14.7464 4.07187 12.1684C2.44262 11.898 1.1626 10.6259 0.891026 8.99772L0.667901 7.66367C0.58226 7.15442 0.995807 6.7003 1.51074 6.73639C6.03023 7.05752 19.4127 7.72 26.1654 7.87214L35.3947 21.1317Z" fill="#2E5A2C"/>
  <path d="M31.6679 22.2812H27.5295C27.0765 22.2812 26.7092 22.6484 26.7092 23.1016C26.7092 23.5547 27.0765 23.9219 27.5295 23.9219H31.6679C32.121 23.9219 32.4882 23.5547 32.4882 23.1016C32.4882 22.6484 32.1209 22.2812 31.6679 22.2812Z" fill="url(#paint3_linear_15117_1771)"/>
  <path d="M12.1489 7.53654L14.523 10.7315C14.8192 11.1301 15.2046 11.4539 15.6483 11.677C16.092 11.9001 16.5818 12.0163 17.0784 12.0163H31.0477C31.9241 12.0163 32.6363 11.309 32.6423 10.4326L32.6597 7.87583C32.6638 7.26508 32.1742 6.76545 31.5634 6.75736L12.6747 6.50787C12.141 6.50087 11.8306 7.10823 12.1489 7.53654Z" fill="url(#paint4_linear_15117_1771)"/>
  <path d="M41.8171 8.10683C40.8837 8.10683 40.127 7.35017 40.127 6.41666V3.48705C40.127 2.55364 40.8836 1.79688 41.8171 1.79688C42.7505 1.79688 43.5073 2.55353 43.5073 3.48705V6.41666C43.5073 7.35017 42.7505 8.10683 41.8171 8.10683Z" fill="url(#paint5_linear_15117_1771)"/>
  <defs>
    <linearGradient id="paint0_linear_15117_1771" x1="31.0875" y1="4.16525" x2="42.6727" y2="4.16525" gradientUnits="userSpaceOnUse">
      <stop offset="1" stop-color="#5FA25C"/>
    </linearGradient>
    <linearGradient id="paint1_linear_15117_1771" x1="7.85303" y1="23.9056" x2="23.9285" y2="23.9056" gradientUnits="userSpaceOnUse">
      <stop offset="1" stop-color="#5FA25C"/>
    </linearGradient>
    <linearGradient id="paint2_linear_15117_1771" x1="40.5067" y1="21.0579" x2="49.5059" y2="21.0579" gradientUnits="userSpaceOnUse">
      <stop offset="1" stop-color="#5FA25C"/>
    </linearGradient>
    <linearGradient id="paint3_linear_15117_1771" x1="26.7092" y1="23.1016" x2="32.4882" y2="23.1016" gradientUnits="userSpaceOnUse">
      <stop offset="1" stop-color="#5FA25C"/>
    </linearGradient>
    <linearGradient id="paint4_linear_15117_1771" x1="12.0205" y1="9.26207" x2="32.6597" y2="9.26207" gradientUnits="userSpaceOnUse">
      <stop offset="1" stop-color="#5FA25C"/>
    </linearGradient>
    <linearGradient id="paint5_linear_15117_1771" x1="40.127" y1="4.95185" x2="43.5073" y2="4.95185" gradientUnits="userSpaceOnUse">
      <stop offset="1" stop-color="#5FA25C"/>
    </linearGradient>
  </defs>
</svg>